<svg id="Capa_1" data-name="Capa 1" xmlns="http://www.w3.org/2000/svg" viewBox="0 0 56.77 14.79"><defs><style>.cls-1{fill:#05e4de;}.cls-2{fill:#1d1d1b;}.cls-3{fill:#fff;}</style></defs><title>buttomhome</title><rect class="cls-1" x="3.44" y="2.81" width="9.07" height="9.07" rx="1.28"/><path class="cls-2" d="M16.12,5.27H14.9a.74.74,0,0,1-.74-.74h0a.74.74,0,0,1,.74-.74h5.77a.75.75,0,0,1,.74.74h0a.74.74,0,0,1-.74.74H19.46a.74.74,0,0,0-.74.74v4.7a.74.74,0,0,1-.74.74H17.6a.74.74,0,0,1-.74-.74V6A.74.74,0,0,0,16.12,5.27Z"/><path class="cls-2" d="M31.21,7.37a4.62,4.62,0,0,1-5,4.77A4.55,4.55,0,0,1,21.4,7.38a4.68,4.68,0,0,1,4.94-4.71A4.57,4.57,0,0,1,31.21,7.37Zm-7.49,0c0,1.71.87,3.06,2.64,3.06s2.53-1.54,2.53-3-.78-3-2.62-3S23.72,5.83,23.72,7.36Z"/><path class="cls-2" d="M32.64,3.64H33a.72.72,0,0,1,.73.73v.9A.73.73,0,0,0,35,5.81l2.14-2a.73.73,0,0,1,.49-.19h.08a.72.72,0,0,1,.49,1.26L36.53,6.4a.74.74,0,0,0-.06,1L38.69,10a.72.72,0,0,1-.55,1.2h-.33a.71.71,0,0,1-.56-.26L35.17,8.44a.73.73,0,0,0-1-.09L34,8.47a.72.72,0,0,0-.26.55v1.42a.72.72,0,0,1-.73.73h-.37a.73.73,0,0,1-.73-.73V4.37A.73.73,0,0,1,32.64,3.64Z"/><path class="cls-2" d="M40.66,5.1h-1.2a.72.72,0,0,1-.72-.72h0a.73.73,0,0,1,.72-.73h5.65a.73.73,0,0,1,.72.73h0a.72.72,0,0,1-.72.72H43.93a.73.73,0,0,0-.73.73v4.6a.73.73,0,0,1-.72.73h-.37a.73.73,0,0,1-.73-.73V5.83A.73.73,0,0,0,40.66,5.1Z"/><path class="cls-2" d="M47.43,3.65a.73.73,0,0,1,.73.73V7.9c0,1.59.83,2,1.76,2s1.63-.42,1.63-2V4.38a.73.73,0,0,1,.73-.73h.37a.73.73,0,0,1,.73.73V8c0,2.28-1.28,3.37-3.51,3.37s-3.53-1-3.53-3.32V4.38a.73.73,0,0,1,.72-.73Z"/><path class="cls-3" d="M11.07,6.49a3.12,3.12,0,1,0-5,2.85l.56,1.26a.61.61,0,0,0,.4.34.61.61,0,0,0,.68-.32L8,10A3.12,3.12,0,0,0,11.07,6.49ZM8,9.5H7.91s-.17,0-.23.1l-.4.82a.11.11,0,0,1-.1.06.12.12,0,0,1-.1-.06S6.52,9.19,6.47,9.1A.14.14,0,0,0,6.41,9a2.61,2.61,0,0,1-1-2.53A2.64,2.64,0,1,1,8,9.5Z"/><path class="cls-3" d="M9.19,6.5a.5.5,0,0,0,0,1,.5.5,0,1,0,0-1Z"/><path class="cls-3" d="M7.9,6.5A.5.5,0,1,0,8.39,7,.49.49,0,0,0,7.9,6.5Z"/><path class="cls-3" d="M6.65,6.5a.5.5,0,1,0,0,1,.5.5,0,0,0,0-1Z"/></svg>